HIERARCHY
ROOT Hips
{
	OFFSET 56.665199 -22.470316 94.160400
	CHANNELS 6 Xposition Yposition Zposition Xrotation Yrotation Zrotation
	JOINT spine
	{
		OFFSET 0.000000 -0.429888 7.475601
		CHANNELS 3 Xrotation Yrotation Zrotation
		JOINT spine1
		{
			OFFSET 0.000000 -0.000002 9.923012
			CHANNELS 3 Xrotation Yrotation Zrotation
			JOINT spine2
			{
				OFFSET 0.000000 0.000000 9.508041
				CHANNELS 3 Xrotation Yrotation Zrotation
				JOINT Neck
				{
					OFFSET 0.000000 -1.163843 24.411095
					CHANNELS 3 Xrotation Yrotation Zrotation
					JOINT Head
					{
						OFFSET 0.000000 -0.000002 7.375229
						CHANNELS 3 Xrotation Yrotation Zrotation
						End Site
						{
							OFFSET 0.000000 5.887405 17.852203
						}
					}
				}
				JOINT RightShoulder
				{
					OFFSET -4.003559 0.557467 10.267906
					CHANNELS 3 Xrotation Yrotation Zrotation
					JOINT RightArm
					{
						OFFSET 0.000000 -0.000002 13.467300
						CHANNELS 3 Xrotation Yrotation Zrotation
						JOINT RightArmRoll
						{
							OFFSET 0.000000 -0.000002 6.798584
							CHANNELS 3 Xrotation Yrotation Zrotation
							JOINT RightForeArm
							{
								OFFSET 0.000000 -0.000004 19.801804
								CHANNELS 3 Xrotation Yrotation Zrotation
								JOINT RightForeArmRoll
								{
									OFFSET 0.000000 0.000000 7.629044
									CHANNELS 3 Xrotation Yrotation Zrotation
									JOINT RightHand
									{
										OFFSET 0.000000 -0.000004 15.309799
										CHANNELS 3 Xrotation Yrotation Zrotation
										End Site
										{
											OFFSET 0.000000 0.000000 0.100006
										}
									}
								}
							}
						}
					}
				}
				JOINT LeftShoulder
				{
					OFFSET 4.003559 0.557467 10.267906
					CHANNELS 3 Xrotation Yrotation Zrotation
					JOINT LeftArm
					{
						OFFSET 0.000000 -0.000002 13.467300
						CHANNELS 3 Xrotation Yrotation Zrotation
						JOINT LeftArmRoll
						{
							OFFSET 0.000000 -0.000002 6.798584
							CHANNELS 3 Xrotation Yrotation Zrotation
							JOINT LeftForeArm
							{
								OFFSET 0.000000 -0.000004 19.801804
								CHANNELS 3 Xrotation Yrotation Zrotation
								JOINT LeftForeArmRoll
								{
									OFFSET 0.000000 0.000000 7.629044
									CHANNELS 3 Xrotation Yrotation Zrotation
									JOINT LeftHand
									{
										OFFSET 0.000000 -0.000004 15.309799
										CHANNELS 3 Xrotation Yrotation Zrotation
										End Site
										{
											OFFSET 0.000000 0.000000 0.100006
										}
									}
								}
							}
						}
					}
				}
			}
		}
	}
	JOINT RightUpLeg
	{
		OFFSET -6.626091 1.019270 -1.215050
		CHANNELS 3 Xrotation Yrotation Zrotation
		JOINT RightUpLegRoll
		{
			OFFSET 0.000000 -0.000002 17.951698
			CHANNELS 3 Xrotation Yrotation Zrotation
			JOINT RightLeg
			{
				OFFSET 0.000000 0.000002 -22.230400
				CHANNELS 3 Xrotation Yrotation Zrotation
				JOINT RightLegRoll
				{
					OFFSET 0.000000 -0.000002 22.303200
					CHANNELS 3 Xrotation Yrotation Zrotation
					JOINT RightFoot
					{
						OFFSET 0.000000 -0.000004 18.563599
						CHANNELS 3 Xrotation Yrotation Zrotation
						JOINT RightToeBase
						{
							OFFSET 0.000000 -0.000002 15.518295
							CHANNELS 3 Xrotation Yrotation Zrotation
							End Site
							{
								OFFSET 0.006577 0.866261 7.515381
							}
						}
					}
				}
			}
		}
	}
	JOINT LeftUpLeg
	{
		OFFSET 6.626091 1.019270 -1.215050
		CHANNELS 3 Xrotation Yrotation Zrotation
		JOINT LeftUpLegRoll
		{
			OFFSET 0.000000 -0.000002 17.951797
			CHANNELS 3 Xrotation Yrotation Zrotation
			JOINT LeftLeg
			{
				OFFSET 0.000000 -0.000004 22.230293
				CHANNELS 3 Xrotation Yrotation Zrotation
				JOINT LeftLegRoll
				{
					OFFSET 0.000000 -0.000004 22.509308
					CHANNELS 3 Xrotation Yrotation Zrotation
					JOINT LeftFoot
					{
						OFFSET 0.000000 -0.000004 18.357498
						CHANNELS 3 Xrotation Yrotation Zrotation
						JOINT LeftToeBase
						{
							OFFSET 0.000000 -0.000002 15.518295
							CHANNELS 3 Xrotation Yrotation Zrotation
							End Site
							{
								OFFSET -0.029476 0.866261 7.515396
							}
						}
					}
				}
			}
		}
	}
}
MOTION
Frames: 5
Frame Time: 0.041667
54.018005 0.719786 74.076408 12.754610 4.546466 3.813506 0.078782 0.325381 -0.454854 4.163064 0.645469 -0.913468 5.808115 0.634486 -0.921134 -31.197391 -10.202916 -5.806878 15.099849 1.629500 -1.662110 -17.014763 -84.544143 -20.379763 89.466701 -53.300768 105.955755 0.000003 -0.000006 -0.000014 3.261569 -7.279708 -0.784957 0.000005 0.000004 -3.004969 -5.000251 -7.998823 0.000179 -22.231665 55.848100 26.361732 127.227491 43.984615 -141.553061 0.000001 -0.000003 -0.000003 -0.001988 -0.055307 0.858475 0.000002 0.000012 3.008529 -5.000186 7.999240 -0.000085 -69.030195 175.132867 3.852380 179.999964 0.000005 -1.627001 106.386241 1.536946 -3.009298 0.000004 0.000002 2.050790 73.976372 7.286147 0.575493 34.302016 -7.266072 1.131890 -69.224787 178.872833 -1.974717 -0.000017 -0.000005 -1.328111 -71.915697 -1.944888 1.923096 -0.000002 0.000004 -2.021689 76.871710 -7.559930 0.682533 29.369400 7.340235 -0.499727 
54.024303 0.611616 74.244400 12.733758 4.530769 3.802686 0.055878 0.330419 -0.455314 4.117299 0.655715 -0.914573 5.762348 0.644719 -0.922363 -31.014175 -10.241621 -5.787733 15.086448 1.681697 -1.655965 -17.159158 -84.658214 -20.529541 89.274479 -53.461318 105.804111 0.000001 -0.000007 -0.000015 3.306560 -7.286152 -0.782568 0.000007 0.000004 -3.004920 -5.000250 -7.998823 0.000179 -22.230164 55.808458 26.360888 127.337662 44.066933 -141.654285 0.000000 -0.000002 -0.000002 -0.002358 -0.027918 0.859041 0.000001 0.000012 3.008528 -5.000187 7.999241 -0.000083 -68.721470 175.120012 3.762541 179.999964 0.000005 -1.622998 106.648732 1.491270 -3.012208 0.000004 0.000002 2.037270 73.977280 7.284229 0.581065 34.322858 -7.265848 1.134640 -68.907798 178.861453 -1.945816 -0.000019 -0.000004 -1.325031 -71.646082 -1.887729 1.945803 -0.000002 0.000004 -2.010559 76.889058 -7.561088 0.689261 29.375568 7.340138 -0.500505 
54.041897 0.475872 74.408104 12.712510 4.514949 3.791867 0.032977 0.335641 -0.455797 4.071536 0.666331 -0.915783 5.716597 0.655321 -0.923701 -30.829541 -10.283483 -5.768920 15.071678 1.736257 -1.649596 -17.308268 -84.775652 -20.683969 89.071807 -53.619075 105.643731 0.000003 -0.000007 -0.000015 3.346957 -7.292716 -0.780386 0.000007 0.000004 -3.004880 -5.000249 -7.998823 0.000179 -22.228576 55.768023 26.359920 127.447245 44.149687 -141.753978 -0.000000 -0.000002 -0.000001 -0.002121 0.000167 0.859648 0.000002 0.000011 3.008529 -5.000186 7.999242 -0.000081 -68.411817 175.107786 3.671300 179.999964 0.000005 -1.617998 106.914099 1.446059 -3.014012 0.000003 0.000002 2.023550 73.974487 7.282157 0.587451 34.345084 -7.265605 1.137551 -68.588766 178.848708 -1.918142 -0.000016 -0.000005 -1.321911 -71.372041 -1.829434 1.968814 -0.000002 0.000003 -1.999150 76.904672 -7.562659 0.697224 29.380605 7.340047 -0.501141 
54.053295 0.354441 74.583000 12.691058 4.498944 3.781054 0.010115 0.341011 -0.456276 4.025872 0.677243 -0.917035 5.670928 0.666218 -0.925082 -30.644122 -10.327838 -5.750366 15.056139 1.792474 -1.643015 -17.462840 -84.895181 -20.843818 88.860857 -53.774523 105.475886 0.000002 -0.000006 -0.000015 3.383617 -7.299682 -0.778308 0.000006 0.000005 -3.004830 -5.000248 -7.998823 0.000178 -22.226892 55.727097 26.358916 127.556911 44.232227 -141.853112 0.000002 -0.000002 -0.000002 -0.001384 0.029023 0.860282 0.000003 0.000012 3.008528 -5.000184 7.999242 -0.000083 -68.101241 175.095765 3.580365 179.999964 0.000005 -1.613996 107.182580 1.401118 -3.015686 0.000004 0.000002 2.009650 73.968613 7.280110 0.594244 34.367924 -7.265360 1.140513 -68.267987 178.834884 -1.891659 -0.000018 -0.000004 -1.318751 -71.093868 -1.770114 1.992068 -0.000001 0.000003 -1.987500 76.918469 -7.564694 0.706312 29.385048 7.339956 -0.501703 
54.055996 0.233490 74.736908 12.669199 4.482708 3.770272 -0.012653 0.346493 -0.456722 3.980380 0.688380 -0.918262 5.625436 0.677337 -0.926444 -30.458713 -10.373654 -5.731837 15.040413 1.849657 -1.636264 -17.622506 -85.015276 -21.008672 88.643896 -53.927929 105.301880 0.000003 -0.000006 -0.000015 3.417389 -7.307356 -0.776279 0.000006 0.000004 -3.004790 -5.000249 -7.998823 0.000179 -22.225565 55.686109 26.358340 127.666098 44.315285 -141.950660 0.000002 -0.000002 -0.000001 -0.000256 0.058726 0.860929 0.000003 0.000011 3.008529 -5.000186 7.999242 -0.000086 -67.789286 175.084618 3.488511 179.999964 0.000005 -1.609994 107.454353 1.355903 -3.017143 0.000002 0.000002 1.995590 73.960601 7.278170 0.600890 34.390474 -7.265130 1.143413 -67.945533 178.820336 -1.866724 -0.000018 -0.000004 -1.315561 -70.811863 -1.709869 2.015491 -0.000002 0.000004 -1.975620 76.930511 -7.567103 0.716543 29.388989 7.339864 -0.502199 
